<svg version="1.1" xmlns="http://www.w3.org/2000/svg" width="1024.0" height="768.0" viewBox="-512.0 -384.0 1024.0 768.0"><path fill="none" stroke="#000000" d="M270.000,-326.000 L175.000,-232.000 L281.000,-169.000 L307.000,-266.000 L312.000,-271.000 L318.000,-271.000 L322.000,-268.000 L324.000,-264.000 L332.000,-208.000 L360.000,-9.000 L360.000,-1.000 L355.000,4.000 L347.000,3.000 L258.000,-101.000 L192.000,-98.000 L203.000,64.000 L203.000,75.000 L198.000,80.000 L190.000,79.000 L184.000,68.000 L48.000,-296.000 L-11.000,-276.000 L18.000,94.000 L18.000,105.000 L13.000,110.000 L5.000,109.000 L-173.000,-22.000 L-183.000,-32.000 L-183.000,-152.000 L-178.000,-157.000 L-170.000,-156.000 L-75.000,-54.000 L-68.000,-195.000 L-190.000,-217.000 L-254.000,-155.000 L-217.000,173.000 L-136.000,254.000 L-27.000,319.000 L61.000,336.000 L154.000,307.000 L267.000,279.000 L331.000,226.000 L373.000,162.000 L397.000,121.000 L413.000,80.000 L429.000,3.000 L429.000,-14.000 L428.000,-42.000 L424.000,-83.000 L396.000,-198.000 L392.000,-318.000 L270.000,-326.000"/><path fill="none" stroke="#000000" d="M267.000,-333.000 L162.000,-230.000 L286.000,-156.000 L316.000,-265.000 L353.000,-2.000 L263.000,-108.000 L184.000,-105.000 L196.000,75.000 L53.000,-306.000 L-19.000,-281.000 L11.000,103.000 L-175.000,-34.000 L-175.000,-150.000 L-68.000,-34.000 L-60.000,-201.000 L-192.000,-225.000 L-262.000,-158.000 L-224.000,178.000 L-143.000,259.000 L-30.000,327.000 L60.000,345.000 L159.000,315.000 L273.000,286.000 L336.000,234.000 L380.000,167.000 L404.000,126.000 L420.000,86.000 L437.000,5.000 L436.000,-39.000 L432.000,-84.000 L404.000,-202.000 L400.000,-325.000 L267.000,-333.000"/><path fill="none" stroke="#000000" d="M272.000,-317.000 L384.000,-311.000 L388.000,-196.000 L416.000,-81.000 L420.000,-40.000 L421.000,-12.000 L421.000,1.000 L405.000,78.000 L389.000,119.000 L366.000,158.000 L324.000,222.000 L265.000,271.000 L152.000,299.000 L59.000,328.000 L-25.000,311.000 L-132.000,247.000 L-210.000,168.000 L-246.000,-152.000 L-188.000,-208.000 L-77.000,-188.000 L-82.000,-73.000 L-166.000,-163.000 L-170.000,-165.000 L-180.000,-165.000 L-189.000,-158.000 L-191.000,-154.000 L-191.000,-30.000 L-189.000,-26.000 L-181.000,-18.000 L1.000,116.000 L5.000,118.000 L15.000,118.000 L24.000,111.000 L26.000,107.000 L26.000,92.000 L-3.000,-270.000 L43.000,-286.000 L178.000,75.000 L181.000,81.000 L186.000,86.000 L190.000,88.000 L200.000,88.000 L209.000,81.000 L211.000,77.000 L211.000,62.000 L200.000,-90.000 L255.000,-92.000 L333.000,0.000 L343.000,10.000 L347.000,12.000 L357.000,12.000 L366.000,5.000 L368.000,1.000 L368.000,-11.000 L332.000,-266.000 L329.000,-272.000 L320.000,-279.000 L310.000,-279.000 L301.000,-272.000 L298.000,-265.000 L276.000,-182.000 L272.000,-183.000 L188.000,-234.000 L272.000,-317.000"/><path fill="none" stroke="#000000" d="M275.000,-309.000 L377.000,-303.000 L380.000,-195.000 L408.000,-80.000 L412.000,-39.000 L413.000,0.000 L396.000,80.000 L382.000,115.000 L359.000,154.000 L317.000,218.000 L260.000,264.000 L151.000,291.000 L61.000,319.000 L54.000,319.000 L-21.000,304.000 L-128.000,240.000 L-202.000,166.000 L-237.000,-150.000 L-185.000,-200.000 L-85.000,-181.000 L-89.000,-93.000 L-162.000,-170.000 L-169.000,-173.000 L-181.000,-173.000 L-188.000,-170.000 L-196.000,-162.000 L-199.000,-155.000 L-198.000,-26.000 L-196.000,-22.000 L-185.000,-11.000 L-3.000,123.000 L4.000,126.000 L19.000,125.000 L23.000,123.000 L31.000,115.000 L33.000,111.000 L34.000,91.000 L6.000,-265.000 L38.000,-276.000 L171.000,79.000 L174.000,85.000 L182.000,93.000 L189.000,96.000 L201.000,96.000 L208.000,93.000 L216.000,85.000 L219.000,78.000 L219.000,61.000 L209.000,-83.000 L252.000,-84.000 L326.000,4.000 L339.000,17.000 L346.000,20.000 L361.000,19.000 L365.000,17.000 L373.000,9.000 L376.000,2.000 L376.000,-12.000 L340.000,-267.000 L336.000,-276.000 L328.000,-284.000 L324.000,-286.000 L309.000,-287.000 L302.000,-284.000 L294.000,-276.000 L290.000,-266.000 L271.000,-194.000 L201.000,-235.000 L275.000,-309.000"/><path fill="none" stroke="#000000" d="M279.000,-301.000 L369.000,-295.000 L372.000,-194.000 L400.000,-79.000 L404.000,-38.000 L405.000,-1.000 L388.000,78.000 L376.000,108.000 L368.000,123.000 L312.000,211.000 L258.000,256.000 L146.000,284.000 L60.000,311.000 L-19.000,296.000 L-122.000,234.000 L-194.000,162.000 L-229.000,-146.000 L-182.000,-191.000 L-94.000,-175.000 L-97.000,-113.000 L-154.000,-174.000 L-164.000,-180.000 L-186.000,-180.000 L-196.000,-174.000 L-203.000,-166.000 L-207.000,-156.000 L-206.000,-24.000 L-200.000,-14.000 L-193.000,-7.000 L-7.000,130.000 L3.000,134.000 L21.000,133.000 L27.000,130.000 L35.000,123.000 L42.000,109.000 L42.000,90.000 L14.000,-257.000 L14.000,-259.000 L16.000,-260.000 L33.000,-265.000 L163.000,81.000 L170.000,93.000 L178.000,100.000 L188.000,104.000 L206.000,103.000 L212.000,100.000 L220.000,93.000 L227.000,79.000 L227.000,60.000 L218.000,-75.000 L248.000,-76.000 L322.000,12.000 L331.000,21.000 L341.000,27.000 L359.000,28.000 L369.000,24.000 L380.000,13.000 L384.000,3.000 L384.000,-13.000 L348.000,-268.000 L343.000,-280.000 L332.000,-291.000 L322.000,-295.000 L304.000,-294.000 L294.000,-288.000 L287.000,-280.000 L284.000,-274.000 L266.000,-206.000 L214.000,-237.000 L279.000,-301.000"/><path fill="none" stroke="#000000" d="M282.000,-293.000 L287.000,-292.000 L280.000,-284.000 L277.000,-278.000 L261.000,-218.000 L227.000,-239.000 L282.000,-293.000"/><path fill="none" stroke="#000000" d="M266.000,-266.000 L256.000,-230.000 L239.000,-240.000 L266.000,-266.000"/><path fill="none" stroke="#000000" d="M346.000,-289.000 L361.000,-288.000 L363.000,-214.000 L356.000,-269.000 L350.000,-284.000 L346.000,-289.000"/><path fill="none" stroke="#000000" d="M364.000,-209.000 L364.000,-206.000 L364.000,-209.000"/><path fill="none" stroke="#000000" d="M368.000,-179.000 L368.000,-179.000"/><path fill="none" stroke="#000000" d="M282.000,51.000 L303.000,70.000 L318.000,78.000 L325.000,80.000 L326.000,82.000 L304.000,121.000 L268.000,175.000 L231.000,205.000 L131.000,230.000 L58.000,253.000 L51.000,253.000 L2.000,243.000 L-85.000,191.000 L-140.000,137.000 L-141.000,133.000 L-145.000,98.000 L-39.000,176.000 L-24.000,184.000 L-3.000,190.000 L23.000,190.000 L36.000,187.000 L56.000,178.000 L67.000,170.000 L84.000,151.000 L92.000,136.000 L98.000,115.000 L98.000,84.000 L96.000,60.000 L108.000,94.000 L119.000,118.000 L127.000,129.000 L138.000,140.000 L149.000,148.000 L169.000,157.000 L182.000,160.000 L208.000,160.000 L224.000,156.000 L241.000,148.000 L252.000,140.000 L269.000,121.000 L279.000,101.000 L283.000,85.000 L282.000,51.000"/><path fill="none" stroke="#000000" d="M291.000,71.000 L304.000,80.000 L316.000,85.000 L299.000,114.000 L265.000,166.000 L229.000,197.000 L130.000,222.000 L57.000,245.000 L2.000,234.000 L-83.000,183.000 L-133.000,133.000 L-135.000,115.000 L-38.000,186.000 L-23.000,193.000 L-9.000,197.000 L23.000,198.000 L43.000,193.000 L58.000,186.000 L71.000,177.000 L85.000,163.000 L94.000,150.000 L101.000,135.000 L105.000,121.000 L106.000,109.000 L111.000,120.000 L120.000,133.000 L134.000,147.000 L157.000,161.000 L182.000,168.000 L208.000,168.000 L233.000,161.000 L256.000,147.000 L276.000,125.000 L288.000,99.000 L291.000,85.000 L291.000,71.000"/><path fill="none" stroke="#000000" d="M299.000,86.000 L304.000,89.000 L293.000,108.000 L299.000,86.000"/><path fill="none" stroke="#000000" d="M110.000,132.000 L123.000,148.000 L143.000,163.000 L158.000,170.000 L181.000,176.000 L209.000,176.000 L232.000,170.000 L247.000,163.000 L268.000,147.000 L254.000,166.000 L225.000,190.000 L129.000,214.000 L53.000,237.000 L6.000,227.000 L-77.000,177.000 L-115.000,139.000 L-51.000,187.000 L-32.000,198.000 L-4.000,206.000 L24.000,206.000 L52.000,198.000 L71.000,187.000 L82.000,178.000 L92.000,167.000 L101.000,154.000 L110.000,132.000"/><path fill="none" stroke="#000000" d="M112.000,149.000 L136.000,168.000 L162.000,180.000 L181.000,184.000 L209.000,184.000 L223.000,181.000 L210.000,186.000 L124.000,207.000 L54.000,229.000 L10.000,220.000 L0.000,214.000 L31.000,213.000 L46.000,209.000 L64.000,201.000 L84.000,187.000 L95.000,176.000 L106.000,161.000 L112.000,149.000"/><path fill="none" stroke="#000000" d="M114.000,162.000 L137.000,178.000 L152.000,185.000 L165.000,189.000 L123.000,199.000 L56.000,220.000 L41.000,218.000 L53.000,215.000 L68.000,208.000 L87.000,195.000 L103.000,179.000 L114.000,162.000"/><path fill="none" stroke="#000000" d="M116.000,174.000 L138.000,187.000 L92.000,201.000 L110.000,183.000 L116.000,174.000"/><path fill="none" stroke="#000000" d="M83.000,2.000 L117.000,95.000 L126.000,114.000 L135.000,126.000 L150.000,139.000 L165.000,147.000 L174.000,150.000 L183.000,152.000 L207.000,152.000 L216.000,150.000 L237.000,141.000 L255.000,126.000 L264.000,114.000 L270.000,102.000 L275.000,84.000 L275.000,55.000 L273.000,28.000 L287.000,45.000 L307.000,63.000 L322.000,71.000 L337.000,76.000 L331.000,91.000 L317.000,115.000 L277.000,177.000 L236.000,212.000 L136.000,237.000 L56.000,262.000 L0.000,251.000 L-4.000,249.000 L-92.000,196.000 L-148.000,140.000 L-155.000,80.000 L-35.000,169.000 L-20.000,177.000 L-2.000,182.000 L22.000,182.000 L40.000,177.000 L52.000,171.000 L70.000,156.000 L79.000,144.000 L85.000,132.000 L90.000,114.000 L90.000,85.000 L83.000,2.000"/><path fill="none" stroke="#000000" d="M71.000,-52.000 L124.000,91.000 L133.000,110.000 L150.000,129.000 L169.000,140.000 L184.000,144.000 L206.000,144.000 L215.000,142.000 L236.000,132.000 L255.000,113.000 L263.000,98.000 L267.000,83.000 L267.000,56.000 L263.000,4.000 L290.000,36.000 L311.000,56.000 L332.000,66.000 L349.000,68.000 L334.000,102.000 L282.000,184.000 L240.000,219.000 L137.000,245.000 L54.000,270.000 L-4.000,258.000 L-98.000,202.000 L-156.000,144.000 L-165.000,63.000 L-28.000,164.000 L-16.000,170.000 L-1.000,174.000 L21.000,174.000 L36.000,170.000 L51.000,162.000 L67.000,147.000 L78.000,128.000 L82.000,113.000 L82.000,86.000 L71.000,-52.000"/><path fill="none" stroke="#000000" d="M58.000,-109.000 L135.000,97.000 L145.000,113.000 L154.000,122.000 L166.000,130.000 L184.000,136.000 L206.000,136.000 L217.000,133.000 L236.000,122.000 L245.000,113.000 L253.000,101.000 L259.000,83.000 L259.000,56.000 L253.000,-20.000 L297.000,32.000 L311.000,46.000 L323.000,54.000 L333.000,58.000 L341.000,60.000 L359.000,60.000 L359.000,62.000 L345.000,99.000 L325.000,133.000 L289.000,188.000 L243.000,227.000 L138.000,253.000 L65.000,276.000 L54.000,278.000 L-6.000,266.000 L-12.000,263.000 L-102.000,209.000 L-163.000,148.000 L-175.000,46.000 L-19.000,160.000 L-1.000,166.000 L21.000,166.000 L32.000,163.000 L44.000,157.000 L51.000,152.000 L63.000,139.000 L69.000,129.000 L74.000,113.000 L74.000,86.000 L58.000,-109.000"/><path fill="none" stroke="#000000" d="M46.000,-164.000 L66.000,87.000 L66.000,112.000 L64.000,120.000 L56.000,135.000 L47.000,145.000 L33.000,154.000 L20.000,158.000 L0.000,158.000 L-13.000,154.000 L-34.000,140.000 L-185.000,28.000 L-185.000,30.000 L-171.000,151.000 L-107.000,215.000 L-14.000,271.000 L-7.000,274.000 L53.000,286.000 L59.000,286.000 L139.000,261.000 L247.000,234.000 L293.000,196.000 L296.000,192.000 L330.000,140.000 L353.000,101.000 L366.000,68.000 L369.000,50.000 L362.000,52.000 L342.000,52.000 L329.000,48.000 L319.000,42.000 L304.000,28.000 L244.000,-43.000 L251.000,57.000 L251.000,82.000 L247.000,95.000 L241.000,105.000 L232.000,115.000 L222.000,122.000 L213.000,126.000 L205.000,128.000 L185.000,128.000 L168.000,122.000 L152.000,109.000 L142.000,93.000 L46.000,-164.000"/><path fill="none" stroke="#000000" d="M34.000,-219.000 L149.000,89.000 L156.000,101.000 L166.000,111.000 L176.000,117.000 L186.000,120.000 L208.000,119.000 L224.000,111.000 L234.000,101.000 L240.000,91.000 L243.000,81.000 L243.000,58.000 L235.000,-60.000 L241.000,-60.000 L308.000,20.000 L323.000,35.000 L329.000,39.000 L343.000,44.000 L361.000,44.000 L371.000,41.000 L381.000,35.000 L374.000,69.000 L360.000,105.000 L337.000,144.000 L301.000,199.000 L255.000,238.000 L249.000,242.000 L144.000,268.000 L58.000,295.000 L-13.000,281.000 L-113.000,221.000 L-179.000,155.000 L-195.000,13.000 L-195.000,11.000 L-30.000,133.000 L-9.000,147.000 L1.000,150.000 L23.000,149.000 L39.000,141.000 L49.000,131.000 L55.000,121.000 L58.000,111.000 L58.000,88.000 L34.000,-219.000"/><path fill="none" stroke="#000000" d="M33.000,-222.000 L33.000,-222.000"/><path fill="none" stroke="#000000" d="M26.000,-255.000 L29.000,-255.000 L31.000,-250.000 L156.000,85.000 L163.000,97.000 L174.000,107.000 L187.000,112.000 L203.000,112.000 L210.000,110.000 L220.000,104.000 L227.000,97.000 L234.000,84.000 L235.000,59.000 L226.000,-67.000 L244.000,-68.000 L315.000,16.000 L331.000,31.000 L344.000,36.000 L364.000,35.000 L377.000,28.000 L387.000,17.000 L392.000,4.000 L392.000,-14.000 L369.000,-175.000 L392.000,-78.000 L396.000,-37.000 L397.000,-2.000 L381.000,74.000 L369.000,104.000 L361.000,119.000 L305.000,207.000 L254.000,249.000 L145.000,276.000 L59.000,303.000 L-14.000,289.000 L-20.000,286.000 L-118.000,227.000 L-186.000,159.000 L-205.000,-3.000 L-205.000,-8.000 L-189.000,6.000 L-11.000,137.000 L2.000,142.000 L18.000,142.000 L31.000,137.000 L42.000,127.000 L48.000,117.000 L50.000,110.000 L50.000,89.000 L23.000,-245.000 L23.000,-254.000 L26.000,-255.000"/><path fill="none" stroke="#000000" d="M-123.000,-164.000 L-110.000,-161.000 L-111.000,-151.000 L-123.000,-164.000"/><path fill="none" stroke="#000000" d="M-145.000,-176.000 L-102.000,-168.000 L-104.000,-132.000 L-145.000,-176.000"/><path fill="none" stroke="#000000" d="M-215.000,-149.000 L-215.000,-92.000 L-220.000,-144.000 L-215.000,-149.000"/><path fill="none" stroke="#000000" d="M-287.000,-259.000 L-288.921,-278.509 L-294.612,-297.268 L-303.853,-314.557 L-316.289,-329.711 L-331.443,-342.147 L-348.732,-351.388 L-367.491,-357.079 L-387.000,-359.000 L-406.509,-357.079 L-425.268,-351.388 L-442.557,-342.147 L-457.711,-329.711 L-470.147,-314.557 L-479.388,-297.268 L-485.079,-278.509 L-487.000,-259.000 L-485.079,-239.491 L-479.388,-220.732 L-470.147,-203.443 L-457.711,-188.289 L-442.557,-175.853 L-425.268,-166.612 L-406.509,-160.921 L-387.000,-159.000 L-367.491,-160.921 L-348.732,-166.612 L-331.443,-175.853 L-316.289,-188.289 L-303.853,-203.443 L-294.612,-220.732 L-288.921,-239.491 L-287.000,-259.000"/><path fill="none" stroke="#000000" d="M-389.000,-268.000 L-382.000,-266.000 L-379.000,-261.000 L-381.000,-254.000 L-386.000,-251.000 L-393.000,-253.000 L-396.000,-258.000 L-394.000,-265.000 L-389.000,-268.000"/><path fill="none" stroke="#000000" d="M-389.000,-352.000 L-370.000,-350.000 L-353.000,-345.000 L-338.000,-337.000 L-324.000,-326.000 L-312.000,-312.000 L-302.000,-294.000 L-297.000,-277.000 L-295.000,-261.000 L-297.000,-242.000 L-302.000,-225.000 L-310.000,-210.000 L-321.000,-196.000 L-335.000,-184.000 L-353.000,-174.000 L-370.000,-169.000 L-386.000,-167.000 L-405.000,-169.000 L-422.000,-174.000 L-437.000,-182.000 L-451.000,-193.000 L-463.000,-207.000 L-473.000,-225.000 L-478.000,-242.000 L-480.000,-258.000 L-478.000,-277.000 L-473.000,-294.000 L-465.000,-309.000 L-454.000,-323.000 L-440.000,-335.000 L-422.000,-345.000 L-405.000,-350.000 L-389.000,-352.000"/><path fill="none" stroke="#000000" d="M-397.000,-343.000 L-420.000,-337.000 L-433.000,-330.000 L-447.000,-319.000 L-456.000,-308.000 L-465.000,-292.000 L-469.000,-279.000 L-471.000,-269.000 L-471.000,-250.000 L-465.000,-227.000 L-458.000,-214.000 L-447.000,-200.000 L-436.000,-191.000 L-420.000,-182.000 L-407.000,-178.000 L-397.000,-176.000 L-378.000,-176.000 L-355.000,-182.000 L-342.000,-189.000 L-328.000,-200.000 L-319.000,-211.000 L-310.000,-227.000 L-306.000,-240.000 L-304.000,-250.000 L-304.000,-269.000 L-310.000,-292.000 L-317.000,-305.000 L-328.000,-319.000 L-339.000,-328.000 L-355.000,-337.000 L-368.000,-341.000 L-378.000,-343.000 L-397.000,-343.000"/><path fill="none" stroke="#000000" d="M-396.000,-336.000 L-416.000,-331.000 L-431.000,-323.000 L-442.000,-314.000 L-451.000,-303.000 L-459.000,-288.000 L-462.000,-278.000 L-464.000,-268.000 L-464.000,-251.000 L-459.000,-231.000 L-451.000,-216.000 L-442.000,-205.000 L-431.000,-196.000 L-416.000,-188.000 L-406.000,-185.000 L-396.000,-183.000 L-379.000,-183.000 L-359.000,-188.000 L-344.000,-196.000 L-333.000,-205.000 L-324.000,-216.000 L-316.000,-231.000 L-313.000,-241.000 L-311.000,-251.000 L-311.000,-268.000 L-316.000,-288.000 L-324.000,-303.000 L-333.000,-314.000 L-344.000,-323.000 L-359.000,-331.000 L-369.000,-334.000 L-379.000,-336.000 L-396.000,-336.000"/><path fill="none" stroke="#000000" d="M-395.000,-328.000 L-414.000,-323.000 L-427.000,-316.000 L-444.000,-299.000 L-454.000,-277.000 L-456.000,-267.000 L-456.000,-252.000 L-451.000,-233.000 L-444.000,-220.000 L-427.000,-203.000 L-405.000,-193.000 L-395.000,-191.000 L-380.000,-191.000 L-361.000,-196.000 L-348.000,-203.000 L-331.000,-220.000 L-321.000,-242.000 L-319.000,-252.000 L-319.000,-267.000 L-324.000,-286.000 L-331.000,-299.000 L-348.000,-316.000 L-370.000,-326.000 L-380.000,-328.000 L-395.000,-328.000"/><path fill="none" stroke="#000000" d="M-394.000,-321.000 L-413.000,-316.000 L-422.000,-311.000 L-439.000,-294.000 L-444.000,-285.000 L-448.000,-272.000 L-449.000,-253.000 L-444.000,-234.000 L-439.000,-225.000 L-422.000,-208.000 L-413.000,-203.000 L-400.000,-199.000 L-381.000,-198.000 L-362.000,-203.000 L-353.000,-208.000 L-336.000,-225.000 L-331.000,-234.000 L-327.000,-247.000 L-326.000,-266.000 L-331.000,-285.000 L-336.000,-294.000 L-353.000,-311.000 L-362.000,-316.000 L-375.000,-320.000 L-394.000,-321.000"/><path fill="none" stroke="#000000" d="M-393.000,-313.000 L-409.000,-309.000 L-427.000,-296.000 L-437.000,-281.000 L-441.000,-265.000 L-441.000,-254.000 L-437.000,-238.000 L-424.000,-220.000 L-409.000,-210.000 L-393.000,-206.000 L-382.000,-206.000 L-366.000,-210.000 L-348.000,-223.000 L-338.000,-238.000 L-334.000,-254.000 L-334.000,-265.000 L-338.000,-281.000 L-351.000,-299.000 L-366.000,-309.000 L-382.000,-313.000 L-393.000,-313.000"/><path fill="none" stroke="#000000" d="M-392.000,-306.000 L-407.000,-302.000 L-422.000,-291.000 L-430.000,-279.000 L-433.000,-270.000 L-434.000,-255.000 L-430.000,-240.000 L-419.000,-225.000 L-407.000,-217.000 L-398.000,-214.000 L-383.000,-213.000 L-368.000,-217.000 L-353.000,-228.000 L-345.000,-240.000 L-342.000,-249.000 L-341.000,-264.000 L-345.000,-279.000 L-356.000,-294.000 L-368.000,-302.000 L-377.000,-305.000 L-392.000,-306.000"/><path fill="none" stroke="#000000" d="M-392.000,-298.000 L-403.000,-295.000 L-411.000,-290.000 L-418.000,-283.000 L-425.000,-269.000 L-426.000,-255.000 L-423.000,-244.000 L-418.000,-236.000 L-411.000,-229.000 L-397.000,-222.000 L-383.000,-221.000 L-372.000,-224.000 L-364.000,-229.000 L-357.000,-236.000 L-350.000,-250.000 L-349.000,-264.000 L-352.000,-275.000 L-357.000,-283.000 L-364.000,-290.000 L-378.000,-297.000 L-392.000,-298.000"/><path fill="none" stroke="#000000" d="M-391.000,-291.000 L-399.000,-289.000 L-410.000,-282.000 L-417.000,-271.000 L-419.000,-256.000 L-417.000,-248.000 L-410.000,-237.000 L-399.000,-230.000 L-384.000,-228.000 L-376.000,-230.000 L-365.000,-237.000 L-358.000,-248.000 L-356.000,-263.000 L-358.000,-271.000 L-365.000,-282.000 L-376.000,-289.000 L-391.000,-291.000"/><path fill="none" stroke="#000000" d="M-390.000,-283.000 L-399.000,-280.000 L-406.000,-274.000 L-410.000,-266.000 L-411.000,-257.000 L-408.000,-248.000 L-402.000,-241.000 L-394.000,-237.000 L-385.000,-236.000 L-376.000,-239.000 L-369.000,-245.000 L-365.000,-253.000 L-364.000,-262.000 L-367.000,-271.000 L-373.000,-278.000 L-381.000,-282.000 L-390.000,-283.000"/><path fill="none" stroke="#000000" d="M-390.000,-276.000 L-385.000,-276.000 L-378.000,-273.000 L-374.000,-269.000 L-371.000,-262.000 L-371.000,-257.000 L-374.000,-250.000 L-378.000,-246.000 L-385.000,-243.000 L-390.000,-243.000 L-397.000,-246.000 L-401.000,-250.000 L-404.000,-257.000 L-404.000,-262.000 L-401.000,-269.000 L-397.000,-273.000 L-390.000,-276.000"/><path fill="none" stroke="#000000" d="M-390.872,-129.796 L-406.202,-128.665 L-420.363,-122.648 L-434.453,-116.620 L-439.634,-114.236 L-450.389,-103.369 L-461.027,-92.447 L-466.329,-87.004 L-472.228,-73.038 L-477.828,-58.950 L-479.923,-53.683 L-480.090,-38.611 L-479.884,-23.530 L-476.339,-8.240 L-470.405,5.563 L-462.877,19.327 L-451.484,30.418 L-440.144,41.456 L-426.530,49.301 L-411.407,53.578 L-396.087,56.896 L-380.429,56.330 L-365.177,53.899 L-350.829,47.700 L-336.862,41.062 L-336.109,40.573 L-325.256,29.425 L-314.459,18.326 L-306.373,5.307 L-301.825,-9.350 L-298.324,-24.308 L-298.585,-39.592 L-300.100,-54.731 L-305.232,-69.097 L-313.350,-81.941 L-322.523,-93.951 L-333.726,-104.156 L-339.035,-108.859 L-352.481,-115.716 L-366.844,-120.258 L-370.225,-121.260 L-385.239,-121.922 L-400.272,-121.056 L-404.682,-120.737 L-418.515,-114.834 L-433.049,-108.473 L-435.463,-107.415 L-446.550,-96.101 L-457.540,-84.793 L-459.986,-82.146 L-465.860,-67.502 L-471.698,-52.937 L-472.245,-51.303 L-472.013,-35.614 L-471.781,-20.010 L-471.636,-17.439 L-465.456,-3.128 L-459.262,11.096 L-458.551,12.654 L-447.436,23.466 L-436.371,34.211 L-423.183,41.959 L-408.437,46.090 L-393.507,48.990 L-378.260,48.146 L-363.706,44.551 L-349.780,38.498 L-341.326,34.792 L-330.782,23.933 L-320.300,13.132 L-312.807,0.214 L-308.560,-14.975 L-306.218,-30.396 L-307.460,-46.064 L-308.325,-54.236 L-313.874,-68.846 L-322.706,-81.717 L-333.188,-93.072 L-345.046,-102.914 L-355.894,-108.485 L-371.078,-111.260 L-386.205,-113.873 L-386.998,-114.013 L-387.000,-114.000 L-387.025,-113.985 L-402.660,-112.045 L-407.559,-111.365 L-421.797,-104.721 L-432.731,-99.156 L-443.585,-87.885 L-454.043,-75.669 L-459.656,-61.210 L-464.165,-46.628 L-464.000,-31.213 L-462.188,-16.211 L-462.036,-15.436 L-455.842,-1.411 L-448.305,11.557 L-437.387,22.142 L-424.773,31.496 L-411.060,37.732 L-395.426,39.793 L-379.758,40.156 L-364.741,36.277 L-350.417,29.809 L-338.288,20.390 L-328.673,10.138 L-321.077,-3.161 L-316.145,-14.531 L-315.047,-29.873 L-314.890,-45.216 L-320.010,-59.549 L-326.027,-73.573 L-326.370,-74.247 L-337.035,-85.090 L-346.945,-94.490 L-360.718,-100.662 L-371.924,-105.173 L-387.004,-105.191 L-401.252,-105.014 L-387.531,-105.000 L-402.349,-104.579 L-416.451,-97.951 L-429.519,-91.297 L-439.889,-79.837 L-447.761,-70.310 L-453.105,-55.964 L-456.258,-45.652 L-455.923,-30.390 L-454.313,-16.949 L-447.626,-3.403 L-440.180,8.637 L-428.932,18.545 L-419.126,25.376 L-404.413,30.291 L-389.209,32.155 L-373.969,30.565 L-367.247,29.048 L-353.700,21.896 L-341.808,12.536 L-332.416,0.660 L-325.681,-12.842 L-324.395,-16.047 L-322.755,-31.583 L-323.000,-44.633 L-328.065,-59.324 L-336.260,-72.411 L-346.979,-83.614 L-359.967,-91.677 L-372.961,-97.129 L-388.335,-97.245 L-400.336,-97.013 L-400.358,-97.000 L-400.999,-96.987 L-415.076,-90.619 L-421.990,-87.351 L-432.597,-76.266 L-440.034,-68.466 L-445.865,-54.462 L-448.529,-47.431 L-448.219,-32.330 L-447.927,-21.116 L-441.450,-6.937 L-432.132,5.099 L-420.929,15.645 L-407.033,21.778 L-399.614,24.533 L-384.472,24.419 L-374.244,23.873 L-360.549,17.553 L-348.601,7.966 L-338.084,-3.376 L-332.420,-17.601 L-330.179,-32.469 L-330.999,-47.067 L-337.339,-60.826 L-339.546,-65.544 L-350.572,-75.769 L-359.553,-83.747 L-373.990,-89.213 L-389.293,-89.245 L-399.439,-89.013 L-399.439,-89.000 L-399.997,-88.987 L-413.707,-82.532 L-417.723,-80.619 L-427.855,-69.508 L-435.117,-61.262 L-440.487,-46.843 L-440.206,-31.539 L-439.924,-22.349 L-433.577,-8.596 L-431.878,-5.271 L-420.818,4.908 L-408.085,12.992 L-394.550,17.416 L-379.389,16.464 L-365.353,11.101 L-353.342,1.751 L-343.482,-9.871 L-338.653,-24.375 L-337.571,-27.734 L-338.558,-42.781 L-344.059,-56.727 L-345.802,-60.831 L-356.931,-71.438 L-361.584,-75.795 L-375.772,-81.162 L-376.683,-81.498 L-391.750,-81.168 L-398.000,-81.000 L-412.124,-74.907 L-412.947,-74.450 L-423.454,-63.375 L-427.241,-59.200 L-432.406,-45.059 L-432.541,-44.616 L-432.142,-29.214 L-431.959,-24.149 L-425.841,-10.245 L-414.926,0.153 L-401.433,6.900 L-386.665,9.271 L-380.908,9.060 L-367.029,3.302 L-355.926,-6.638 L-348.506,-19.494 L-345.778,-27.167 L-345.964,-41.170 L-351.918,-55.156 L-352.594,-56.677 L-363.468,-67.012 L-365.268,-68.705 L-377.920,-73.559 L-392.987,-73.142 L-397.001,-73.013 L-396.599,-73.000 L-396.999,-72.987 L-396.999,-72.973 L-408.667,-67.633 L-418.976,-56.645 L-420.277,-55.191 L-424.567,-43.451 L-424.090,-28.364 L-418.757,-14.320 L-418.593,-13.981 L-407.459,-3.866 L-393.315,1.374 L-378.284,-0.313 L-365.430,-8.151 L-356.740,-20.283 L-353.684,-28.053 L-355.182,-42.890 L-362.986,-55.753 L-371.401,-62.807 L-378.806,-65.597 L-394.089,-65.077 L-395.682,-65.013 L-395.044,-65.000 L-395.998,-64.959 L-405.719,-59.476 L-414.064,-49.333 L-416.430,-42.339 L-416.009,-27.137 L-407.536,-14.905 L-400.810,-9.521 L-386.041,-6.902 L-383.532,-6.838 L-370.899,-15.012 L-364.890,-20.762 L-362.062,-35.517 L-361.851,-38.601 L-361.887,-38.843 L-370.877,-50.921 L-375.202,-55.673 L-390.300,-56.785 L-394.768,-56.988 L-393.839,-56.878 L-394.988,-56.931 L-405.913,-46.540 L-407.178,-45.294 L-407.860,-30.222 L-407.829,-27.510 L-407.767,-27.322 L-397.123,-16.598 L-396.944,-16.521 L-385.302,-15.021 L-383.332,-15.395 L-371.918,-24.999 L-371.202,-26.398 L-369.898,-36.734 L-379.168,-48.618 L-379.279,-48.733 L-393.001,-49.013 L-392.542,-48.965 L-392.991,-48.961 L-392.988,-48.947 L-400.871,-39.447 L-399.905,-29.484 L-392.974,-23.858 L-386.501,-22.853 L-385.214,-23.189 L-378.925,-30.748 L-377.737,-35.576 L-378.317,-36.924 L-383.131,-41.782 L-390.931,-41.013 L-390.069,-41.000 L-391.071,-41.138 L-394.779,-38.382 L-395.997,-31.300 L-395.773,-29.972 L-392.159,-26.292 L-385.650,-23.319 L-385.273,-23.378 L-377.357,-28.989 L-374.271,-36.689 L-374.303,-36.799 L-380.560,-47.020 L-392.995,-48.987"/><path fill="none" stroke="#000000" d="M-287.000,-34.000 L-288.921,-14.491 L-294.612,4.268 L-303.853,21.557 L-316.289,36.711 L-331.443,49.147 L-348.732,58.388 L-367.491,64.079 L-387.000,66.000 L-406.509,64.079 L-425.268,58.388 L-442.557,49.147 L-457.711,36.711 L-470.147,21.557 L-479.388,4.268 L-485.079,-14.491 L-487.000,-34.000 L-485.079,-53.509 L-479.388,-72.268 L-470.147,-89.557 L-457.711,-104.711 L-442.557,-117.147 L-425.268,-126.388 L-406.509,-132.079 L-387.000,-134.000 L-367.491,-132.079 L-348.732,-126.388 L-331.443,-117.147 L-316.289,-104.711 L-303.853,-89.557 L-294.612,-72.268 L-288.921,-53.509 L-287.000,-34.000"/><path fill="none" stroke="#000000" d="M-348.851,98.576 L-357.014,112.714 L-367.039,130.078 L-377.064,147.441 L-387.088,164.805 L-397.113,182.168 L-407.138,199.532 L-417.163,216.896 L-427.188,234.259 L-437.213,251.623 L-447.237,268.986 L-447.755,269.882"/><path fill="none" stroke="#000000" d="M-441.351,274.792 L-435.284,264.284 L-425.259,246.921 L-415.234,229.557 L-405.210,212.194 L-395.185,194.830 L-385.160,177.467 L-375.135,160.103 L-365.110,142.740 L-355.085,125.376 L-345.061,108.012 L-341.779,102.329"/><path fill="none" stroke="#000000" d="M-334.720,106.102 L-343.132,120.673 L-353.157,138.036 L-363.182,155.400 L-373.207,172.764 L-383.232,190.127 L-393.257,207.490 L-403.281,224.854 L-413.306,242.218 L-423.331,259.581 L-433.356,276.945 L-434.292,278.565"/><path fill="none" stroke="#000000" d="M-427.231,282.338 L-421.403,272.243 L-411.378,254.880 L-401.353,237.516 L-391.328,220.153 L-381.303,202.789 L-371.278,185.426 L-361.253,168.062 L-351.229,150.699 L-341.204,133.335 L-331.179,115.972 L-328.083,110.610"/><path fill="none" stroke="#000000" d="M-321.814,115.755 L-329.250,128.635 L-339.275,145.998 L-349.300,163.362 L-359.325,180.725 L-369.350,198.089 L-379.375,215.453 L-389.399,232.816 L-399.424,250.180 L-409.449,267.543 L-419.474,284.907 L-419.591,285.110"/><path fill="none" stroke="#000000" d="M-411.730,287.495 L-407.521,280.204 L-397.496,262.841 L-387.471,245.477 L-377.446,228.114 L-367.421,210.750 L-357.397,193.386 L-347.372,176.023 L-337.347,158.659 L-327.322,141.296 L-317.297,123.932 L-315.646,121.073"/><path fill="none" stroke="#000000" d="M-310.223,127.681 L-315.369,136.594 L-325.393,153.958 L-335.418,171.322 L-345.443,188.685 L-355.468,206.049 L-365.493,223.412 L-375.518,240.776 L-385.542,258.139 L-395.567,275.503 L-403.572,289.368"/><path fill="none" stroke="#000000" d="M-394.831,290.229 L-393.639,288.164 L-383.614,270.801 L-373.589,253.437 L-363.564,236.074 L-353.540,218.710 L-343.515,201.347 L-333.490,183.983 L-323.465,166.620 L-313.440,149.256 L-304.799,134.290"/><path fill="none" stroke="#000000" d="M-300.186,142.301 L-301.487,144.554 L-311.512,161.918 L-321.537,179.282 L-331.561,196.645 L-341.586,214.009 L-351.611,231.372 L-361.636,248.736 L-371.661,266.099 L-381.686,283.463 L-385.979,290.899"/><path fill="none" stroke="#000000" d="M-376.184,289.935 L-369.733,278.760 L-359.708,261.397 L-349.683,244.033 L-339.658,226.669 L-329.633,209.306 L-319.608,191.942 L-309.583,174.578 L-299.559,157.215 L-295.746,150.611"/><path fill="none" stroke="#000000" d="M-292.242,160.545 L-297.630,169.878 L-307.655,187.241 L-317.680,204.605 L-327.705,221.969 L-337.729,239.332 L-347.754,256.696 L-357.779,274.059 L-366.229,288.695"/><path fill="none" stroke="#000000" d="M-355.029,285.298 L-345.826,269.357 L-335.801,251.993 L-325.776,234.630 L-315.751,217.266 L-305.727,199.902 L-295.702,182.539 L-289.060,171.035"/><path fill="none" stroke="#000000" d="M-287.633,184.568 L-293.773,195.203 L-303.798,212.566 L-313.823,229.930 L-323.848,247.293 L-333.872,264.657 L-342.882,280.262"/><path fill="none" stroke="#000000" d="M-328.915,272.072 L-321.919,259.955 L-311.894,242.591 L-301.869,225.227 L-291.845,207.864 L-288.007,201.216"/><path fill="none" stroke="#000000" d="M-294.223,227.984 L-299.941,237.888 L-307.539,251.049"/><path fill="none" stroke="#000000" d="M-454.023,264.737 L-449.166,256.324 L-439.141,238.960 L-429.116,221.597 L-419.091,204.233 L-409.067,186.870 L-399.042,169.506 L-389.017,152.143 L-378.992,134.779 L-368.967,117.415 L-358.942,100.052 L-356.713,96.191"/><path fill="none" stroke="#000000" d="M-364.575,93.806 L-370.896,104.753 L-380.921,122.117 L-390.945,139.481 L-400.970,156.844 L-410.995,174.208 L-421.020,191.571 L-431.045,208.935 L-441.070,226.298 L-451.094,243.662 L-459.944,258.990"/><path fill="none" stroke="#000000" d="M-465.367,252.382 L-463.047,248.365 L-453.023,231.001 L-442.998,213.638 L-432.973,196.274 L-422.948,178.911 L-412.923,161.547 L-402.898,144.184 L-392.874,126.820 L-382.849,109.456 L-372.990,92.380"/><path fill="none" stroke="#000000" d="M-381.732,91.519 L-384.777,96.793 L-394.802,114.157 L-404.827,131.521 L-414.852,148.884 L-424.877,166.248 L-434.902,183.611 L-444.926,200.975 L-454.951,218.338 L-464.976,235.702 L-470.674,245.571"/><path fill="none" stroke="#000000" d="M-475.115,237.262 L-466.904,223.041 L-456.880,205.677 L-446.855,188.314 L-436.830,170.950 L-426.805,153.587 L-416.780,136.223 L-406.755,118.859 L-396.731,101.496 L-390.892,91.383"/><path fill="none" stroke="#000000" d="M-400.688,92.347 L-408.684,106.197 L-418.709,123.561 L-428.734,140.925 L-438.758,158.288 L-448.783,175.652 L-458.808,193.015 L-468.833,210.379 L-478.858,227.742 L-479.509,228.870"/><path fill="none" stroke="#000000" d="M-482.690,218.379 L-480.786,215.081 L-470.761,197.717 L-460.737,180.353 L-450.712,162.990 L-440.687,145.626 L-430.662,128.263 L-420.637,110.899 L-411.053,94.299"/><path fill="none" stroke="#000000" d="M-422.254,97.698 L-422.566,98.237 L-432.591,115.600 L-442.615,132.964 L-452.640,150.328 L-462.665,167.691 L-472.690,185.055 L-482.715,202.418 L-485.415,207.095"/><path fill="none" stroke="#000000" d="M-486.761,193.424 L-484.643,189.756 L-474.618,172.392 L-464.594,155.029 L-454.569,137.665 L-444.544,120.302 L-435.036,103.833"/><path fill="none" stroke="#000000" d="M-450.230,114.150 L-456.497,125.005 L-466.522,142.369 L-476.547,159.732 L-485.437,175.130"/></svg>