<?xml version="1.0" encoding="iso-8859-1"?>
<!DOCTYPE svg PUBLIC "-//W3C//DTD SVG 1.1//EN" "http://www.w3.org/Graphics/SVG/1.1/DTD/svg11.dtd">
<svg version="1.1" id="Capa_1" xmlns="http://www.w3.org/2000/svg" xmlns:xlink="http://www.w3.org/1999/xlink" x="0px" y="0px"
	 width="107.59px" height="107.59px" viewBox="0 0 107.59 107.59" style="enable-background:new 0 0 107.59 107.59;"
	 xml:space="preserve">
<g>
	<g>
		<path id="path5050" d="M96.264,34.699c-3.347-2.532-2.761,11.526-21.229,13.686c-6.061,0.707-11.467,0.123-16.271-1.017
			c-3.056-0.717-3.266-2.931-1.117-5.208c4.146-4.382,6.692-10.292,6.692-16.804c0-13.518-10.953-24.47-24.467-24.47
			c-9.802,0-18.25,5.758-22.158,14.075c-1.331,2.842-4.267,4.793-7.355,4.272C4.308,18.213,0,18.525,0,24.396
			c0,5.9,7.381,11.777,16.339,16.008c2.835,1.335,2.868,3.211,0.267,4.966C7.755,51.313,1.925,61.412,1.925,72.876
			c0,18.295,14.928,31.224,33.129,33.126c25.834,2.701,56.48-1.725,68.054-24.964C111.389,64.409,107.671,43.343,96.264,34.699"/>
	</g>
</g>
</svg>
